# xmcd CD database file
#
# Track frame offsets:
#	150
#	14054
#	29488
#	39896
#	53818
#	66621
#	80232
#	94070
#	107229
#	121846
#	137093
#	152826
#	166733
#	181164
#	192569
#	210164
#	224289
#	238245
#	253561
#	267000
#	281212
#	292023
#	305339
#	320128
#	334963
#
# Disc length: 4674 seconds
#
# Revision: 0
# Processed by: cddbd v1.5.1PL0 Copyright (c) Steve Scherf et al.
# Submitted via: CDex 1.51
#
DISCID=81124019
DTITLE=Count Basie - Complete 1941-1951 Columbia Recordings [CD1] [Definitive #11209, 2001]
DYEAR=1941
DGENRE=Jazz
TTITLE0=Take Me Back, Baby
TTITLE1=Moon Nocturne
TTITLE2=Something New
TTITLE3=I Struck a Match in the Dark
TTITLE4=Platterbrains
TTITLE5=All of Me
TTITLE6=Feather Merchant
TTITLE7=Down for Double
TTITLE8=More Than You Know
TTITLE9=Harvard Blues
TTITLE10=Coming Out Party
TTITLE11=One O'Clock Jump
TTITLE12=Blue Shadows and White Gardenias
TTITLE13='Ay Now
TTITLE14=For the Good of Your Country
TTITLE15=Basie Blues
TTITLE16=I'm Gonna Move to the Outskirts of Town
TTITLE17=Time on My Hands
TTITLE18=How Long Blues
TTITLE19=Royal Garden Blues
TTITLE20=Bugle Blues
TTITLE21=Sugar Blues
TTITLE22=Farewell Blues
TTITLE23=Café Society Blues
TTITLE24=Way Back Blues
EXTD=YEAR: 1941
EXTT0=
EXTT1=
EXTT2=
EXTT3=
EXTT4=
EXTT5=
EXTT6=
EXTT7=
EXTT8=
EXTT9=
EXTT10=
EXTT11=
EXTT12=
EXTT13=
EXTT14=
EXTT15=
EXTT16=
EXTT17=
EXTT18=
EXTT19=
EXTT20=
EXTT21=
EXTT22=
EXTT23=
EXTT24=
PLAYORDER=
